<svg width="161" height="75" viewBox="0 0 161 75" fill="none" xmlns="http://www.w3.org/2000/svg">
<g clip-path="url(#clip0_226_739)">
<path d="M0 74.1312H37.7146V68.2384L27.0924 68.1486V15.2574L37.7146 7.15935V0L0 26.5175V74.1312ZM5.16515 29.5357L22.0619 18.4374V43.3963L11.4981 50.367V67.9465H5.16515V29.5357Z" fill="#FED30A"/>
<path d="M68.6426 67.9459L63.9446 63.6251L48.3503 49.2795L47.7575 48.736L48.3503 48.1118L53.3853 42.8119L67.5962 27.8464L64.2141 25.5513L61.3082 23.5795L61.2722 23.6199L53.3853 31.7315L48.3503 36.9101L45.2513 40.099V13.0246L37.728 7.2666V68.2379V74.1081H45.2513V68.175V57.3731L48.3503 60.1398L64.003 74.1081H75.3394L68.6426 67.9459Z" fill="#FED30A"/>
<path d="M97.2935 35.2212H85.3394V58.7232H90.0153V39.5521H97.2935C99.8991 39.5521 101.837 41.2321 101.837 43.5474C101.837 45.8628 99.8669 47.4752 97.2935 47.4752H92.6854V51.8738H97.2935C102.069 51.8738 106.51 48.2814 106.51 43.5474C106.51 38.5459 102.302 35.2212 97.2935 35.2212Z" fill="#222222"/>
<path d="M121.566 39.2177C124.972 39.2177 127.61 40.7625 128.88 43.3455H133.82C132.35 38.073 127.577 34.7192 121.566 34.7192C116.703 34.7192 112.66 37.0024 110.483 40.598H116.674C118.003 39.7112 119.677 39.2146 121.566 39.2146V39.2177ZM121.566 54.7289C116.826 54.7289 113.421 51.5396 113.421 47.0089C113.421 45.6447 113.711 44.4129 114.246 43.3455H109.267C108.925 44.4902 108.745 45.7157 108.745 47.0089C108.745 53.9904 114.256 59.2306 121.566 59.2306C127.577 59.2306 132.385 55.8737 133.82 50.6012H128.88C127.577 53.152 124.939 54.7289 121.566 54.7289Z" fill="#222222"/>
<path d="M137.126 35.2212V58.7232H141.802V35.2212H137.126ZM148.845 46.9722L159.928 35.2212H153.585L144.469 44.8244V49.2198L154.285 58.7232H160.796L148.842 46.9722H148.845Z" fill="#222222"/>
<path d="M89.3456 64.3023C90.0583 64.3023 90.5194 64.7603 90.5194 65.4374C90.5194 66.1147 90.0615 66.5758 89.3456 66.5758H88.2943V67.6109H87.8364V64.2992H89.3456V64.3023ZM89.3198 66.1502C89.7745 66.1502 90.0615 65.8663 90.0615 65.4374C90.0615 65.0086 89.7745 64.7281 89.3198 64.7281H88.2943V66.1502H89.3198ZM91.5417 67.1821H93.5088V67.6109H91.0838V64.2992H93.483V64.7248H91.5449V65.7244H93.3991V66.1437H91.5449V67.1788L91.5417 67.1821ZM97.2463 64.3023H97.6687V67.6142H97.214V65.0892L95.9886 66.6726H95.8854L94.6665 65.0892V67.6142H94.2086V64.3023H94.631L95.9403 66.0051L97.2495 64.3023H97.2463ZM100.01 67.6819C99.007 67.6819 98.3201 66.9789 98.3201 65.9567C98.3201 64.9344 99.007 64.2314 100.01 64.2314C101.013 64.2314 101.7 64.9377 101.7 65.9567C101.7 66.9757 101.013 67.6819 100.01 67.6819ZM100.01 67.2498C100.732 67.2498 101.235 66.7242 101.235 65.9599C101.235 65.1956 100.736 64.6699 100.01 64.6699C99.2843 64.6699 98.7845 65.1956 98.7845 65.9599C98.7845 66.7242 99.2843 67.2498 100.01 67.2498ZM104.66 64.3023H105.118V67.6142H104.66V66.1437H102.803V67.6142H102.345V64.3023H102.803V65.7116H104.66V64.3023ZM108.301 64.3023V64.7313H107.188V67.6109H106.734V64.7313H105.621V64.3023H108.298H108.301ZM111.122 64.3023H111.58V67.6142H111.122V66.1437H109.265V67.6142H108.807V64.3023H109.265V65.7116H111.122V64.3023ZM113.915 67.6819C112.912 67.6819 112.225 66.9789 112.225 65.9567C112.225 64.9344 112.912 64.2314 113.915 64.2314C114.918 64.2314 115.605 64.9377 115.605 65.9567C115.605 66.9757 114.918 67.6819 113.915 67.6819ZM113.915 67.2498C114.637 67.2498 115.141 66.7242 115.141 65.9599C115.141 65.1956 114.641 64.6699 113.915 64.6699C113.19 64.6699 112.69 65.1956 112.69 65.9599C112.69 66.7242 113.19 67.2498 113.915 67.2498ZM116.143 66.4436V66.0469H117.849V66.4436H116.143ZM120.107 67.6787C119.094 67.6787 118.385 66.9661 118.385 65.9567C118.385 64.9473 119.094 64.2347 120.107 64.2347C120.581 64.2347 121 64.4088 121.326 64.7442L121.01 65.0279C120.777 64.7861 120.474 64.6636 120.12 64.6636C119.368 64.6636 118.846 65.1892 118.846 65.9534C118.846 66.7177 119.365 67.2433 120.12 67.2433C120.465 67.2433 120.8 67.1111 121.042 66.8757L121.345 67.1821C121.019 67.5046 120.597 67.6722 120.107 67.6722V67.6787ZM124.254 64.3023V64.7313H123.141V67.6109H122.686V64.7313H121.574V64.3023H124.25H124.254ZM126.266 64.3023C126.979 64.3023 127.44 64.7603 127.44 65.4374C127.44 66.1147 126.982 66.5758 126.266 66.5758H125.215V67.6109H124.757V64.2992H126.266V64.3023ZM126.243 66.1502C126.698 66.1502 126.985 65.8663 126.985 65.4374C126.985 65.0086 126.698 64.7281 126.243 64.7281H125.218V66.1502H126.243ZM129.491 67.6819C128.488 67.6819 127.801 66.9789 127.801 65.9567C127.801 64.9344 128.488 64.2314 129.491 64.2314C130.494 64.2314 131.18 64.9377 131.18 65.9567C131.18 66.9757 130.494 67.6819 129.491 67.6819ZM129.491 67.2498C130.213 67.2498 130.716 66.7242 130.716 65.9599C130.716 65.1956 130.216 64.6699 129.491 64.6699C128.765 64.6699 128.265 65.1956 128.265 65.9599C128.265 66.7242 128.765 67.2498 129.491 67.2498ZM134.189 64.3023H134.605V67.6142H134.147V65.0667L132.235 67.6142H131.822V64.3023H132.28V66.8434L134.186 64.3023H134.189ZM137.788 64.3023V64.7313H136.675V67.6109H136.221V64.7313H135.108V64.3023H137.785H137.788ZM138.749 67.1821H140.716V67.6109H138.291V64.2992H140.69V64.7248H138.752V65.7244H140.606V66.1437H138.752V67.1788L138.749 67.1821ZM141.925 64.3023H144.257V67.6142H143.799V64.7344H142.348L142.267 66.0598C142.206 67.1531 141.845 67.4756 141.232 67.6626L141.129 67.2369C141.532 67.0949 141.767 66.9306 141.825 65.9728L141.929 64.3023H141.925ZM146.527 65.4182C147.337 65.4182 147.782 65.8018 147.782 66.4952C147.782 67.1886 147.337 67.6109 146.527 67.6109H145.108V64.2992H145.566V65.4149H146.527V65.4182ZM146.579 67.1821C147.027 67.1821 147.317 66.9273 147.317 66.4952C147.317 66.0921 147.033 65.8471 146.579 65.8471H145.566V67.1821H146.579ZM150.793 64.3023H151.251V67.6142H150.793V66.1437H148.936V67.6142H148.478V64.3023H148.936V65.7116H150.793V64.3023ZM154.721 67.6109L154.405 66.8886H152.551L152.235 67.6109H151.735L153.218 64.2992H153.738L155.224 67.6109H154.721ZM153.48 64.7796L152.741 66.4629H154.218L153.48 64.7796ZM156.762 64.3023H158.281V67.6142H157.817V66.4501H157.069L156.053 67.6142H155.473L156.514 66.4307C155.966 66.3372 155.611 65.9406 155.611 65.3762C155.611 64.7281 156.069 64.3023 156.766 64.3023H156.762ZM156.072 65.3762C156.072 65.7728 156.343 66.0244 156.769 66.0244H157.82V64.7344H156.769C156.343 64.7344 156.072 64.9861 156.072 65.3794V65.3762ZM111.69 74.0604H111.055L109.526 72.5223V74.0604H109.059V70.7487H109.526V72.1966L110.932 70.7487H111.542L109.978 72.3482L111.69 74.0604ZM113.344 74.1314C112.341 74.1314 111.655 73.4284 111.655 72.4062C111.655 71.3839 112.341 70.6809 113.344 70.6809C114.347 70.6809 115.034 71.3872 115.034 72.4062C115.034 73.4252 114.347 74.1314 113.344 74.1314ZM113.344 73.6993C114.067 73.6993 114.57 73.1737 114.57 72.4094C114.57 71.6452 114.07 71.1196 113.344 71.1196C112.619 71.1196 112.119 71.6452 112.119 72.4094C112.119 73.1737 112.619 73.6993 113.344 73.6993ZM118.72 70.7518H119.142V74.0637H118.688V71.5387L117.462 73.1221H117.359L116.14 71.5387V74.0637H115.682V70.7518H116.105L117.414 72.4546L118.723 70.7518H118.72ZM119.997 70.7518H122.774V74.0637H122.306V71.1937H120.465V74.0637H119.997V70.7518ZM126.243 74.0604L125.927 73.3382H124.073L123.757 74.0604H123.257L124.744 70.7487H125.263L126.75 74.0604H126.247H126.243ZM124.999 71.2292L124.26 72.9124H125.737L124.999 71.2292ZM129.542 70.7518H130V74.0637H129.542V72.5932H127.685V74.0637H127.227V70.7518H127.685V72.1611H129.542V70.7518ZM133.215 70.7518H133.631V74.0637H133.173V71.5162L131.264 74.0637H130.852V70.7518H131.309V73.2929L133.215 70.7518ZM135.54 70.7518H137.059V74.0637H136.595V72.8996H135.847L134.831 74.0637H134.25L135.292 72.8802C134.744 72.7867 134.389 72.3901 134.389 71.8257C134.389 71.1776 134.847 70.7518 135.544 70.7518H135.54ZM134.85 71.8257C134.85 72.2223 135.121 72.4739 135.547 72.4739H136.598V71.1841H135.547C135.121 71.1841 134.85 71.4356 134.85 71.8257Z" fill="#818181"/>
</g>
<defs>
<clipPath id="clip0_226_739">
<rect width="160.796" height="74.1312" fill="white"/>
</clipPath>
</defs>
</svg>
