<svg width="28" height="29" viewBox="0 0 28 29" fill="none" xmlns="http://www.w3.org/2000/svg">
<path d="M21.875 19.0063V7.63135C21.875 7.39929 21.7828 7.17672 21.6187 7.01263C21.4546 6.84854 21.2321 6.75635 21 6.75635H9.625C9.39293 6.75635 9.17037 6.84854 9.00628 7.01263C8.84219 7.17672 8.75 7.39929 8.75 7.63135C8.75 7.86341 8.84219 8.08597 9.00628 8.25007C9.17037 8.41416 9.39293 8.50635 9.625 8.50635H18.888L6.38094 21.0123C6.21675 21.1765 6.12451 21.3992 6.12451 21.6313C6.12451 21.8635 6.21675 22.0862 6.38094 22.2504C6.54512 22.4146 6.7678 22.5068 7 22.5068C7.23219 22.5068 7.45488 22.4146 7.61906 22.2504L20.125 9.74338V19.0063C20.125 19.2384 20.2172 19.461 20.3813 19.6251C20.5454 19.7892 20.7679 19.8813 21 19.8813C21.2321 19.8813 21.4546 19.7892 21.6187 19.6251C21.7828 19.461 21.875 19.2384 21.875 19.0063Z" fill="#F0F0F0"/>
</svg>
