<svg width="32" height="33" viewBox="0 0 32 33" fill="none" xmlns="http://www.w3.org/2000/svg">
<path d="M22.7074 17.3389L12.7074 27.3389C12.6145 27.4318 12.5042 27.5055 12.3828 27.5558C12.2614 27.6061 12.1313 27.632 11.9999 27.632C11.8686 27.632 11.7384 27.6061 11.617 27.5558C11.4957 27.5055 11.3854 27.4318 11.2924 27.3389C11.1995 27.246 11.1258 27.1357 11.0756 27.0143C11.0253 26.8929 10.9994 26.7628 10.9994 26.6314C10.9994 26.5 11.0253 26.3699 11.0756 26.2485C11.1258 26.1271 11.1995 26.0168 11.2924 25.9239L20.5862 16.6314L11.2924 7.33892C11.1048 7.15127 10.9994 6.89678 10.9994 6.63142C10.9994 6.36605 11.1048 6.11156 11.2924 5.92392C11.4801 5.73627 11.7346 5.63086 11.9999 5.63086C12.2653 5.63086 12.5198 5.73627 12.7074 5.92392L22.7074 15.9239C22.8004 16.0168 22.8742 16.1271 22.9245 16.2485C22.9748 16.3699 23.0007 16.5 23.0007 16.6314C23.0007 16.7628 22.9748 16.893 22.9245 17.0144C22.8742 17.1358 22.8004 17.246 22.7074 17.3389Z" fill="#5C6573"/>
</svg>
