<svg width="32" height="33" viewBox="0 0 32 33" fill="none" xmlns="http://www.w3.org/2000/svg">
<path d="M9.29255 17.3389L19.2926 27.3389C19.3855 27.4318 19.4958 27.5055 19.6172 27.5558C19.7386 27.6061 19.8687 27.632 20.0001 27.632C20.1314 27.632 20.2616 27.6061 20.383 27.5558C20.5043 27.5055 20.6146 27.4318 20.7076 27.3389C20.8005 27.246 20.8742 27.1357 20.9244 27.0143C20.9747 26.8929 21.0006 26.7628 21.0006 26.6314C21.0006 26.5 20.9747 26.3699 20.9244 26.2485C20.8742 26.1271 20.8005 26.0168 20.7076 25.9239L11.4138 16.6314L20.7076 7.33892C20.8952 7.15127 21.0006 6.89678 21.0006 6.63142C21.0006 6.36605 20.8952 6.11156 20.7076 5.92392C20.5199 5.73627 20.2654 5.63086 20.0001 5.63086C19.7347 5.63086 19.4802 5.73627 19.2926 5.92392L9.29255 15.9239C9.19958 16.0168 9.12582 16.1271 9.07549 16.2485C9.02517 16.3699 8.99927 16.5 8.99927 16.6314C8.99927 16.7628 9.02517 16.893 9.07549 17.0144C9.12582 17.1358 9.19958 17.246 9.29255 17.3389Z" fill="#5C6573"/>
</svg>
