<svg width="35" height="35" viewBox="0 0 35 35" fill="none" xmlns="http://www.w3.org/2000/svg">
<path d="M0 17.5C0 7.83502 7.83502 0 17.5 0C27.165 0 35 7.83502 35 17.5C35 27.165 27.165 35 17.5 35C7.83502 35 0 27.165 0 17.5Z" fill="#222222"/>
<path d="M17.5 7.5C15.5222 7.5 13.5888 8.08649 11.9443 9.1853C10.2998 10.2841 9.01809 11.8459 8.26121 13.6732C7.50433 15.5004 7.3063 17.5111 7.69215 19.4509C8.078 21.3907 9.03041 23.1725 10.4289 24.5711C11.8275 25.9696 13.6093 26.922 15.5491 27.3078C17.4889 27.6937 19.4996 27.4957 21.3268 26.7388C23.1541 25.9819 24.7159 24.7002 25.8147 23.0557C26.9135 21.4112 27.5 19.4778 27.5 17.5C27.4972 14.8487 26.4427 12.3068 24.568 10.432C22.6932 8.55727 20.1513 7.5028 17.5 7.5ZM18.2692 25.926V19.8077H20.5769C20.7809 19.8077 20.9766 19.7266 21.1209 19.5824C21.2651 19.4381 21.3462 19.2425 21.3462 19.0385C21.3462 18.8344 21.2651 18.6388 21.1209 18.4945C20.9766 18.3503 20.7809 18.2692 20.5769 18.2692H18.2692V15.9615C18.2692 15.5535 18.4313 15.1622 18.7198 14.8737C19.0084 14.5852 19.3997 14.4231 19.8077 14.4231H21.3462C21.5502 14.4231 21.7458 14.342 21.8901 14.1978C22.0343 14.0535 22.1154 13.8579 22.1154 13.6538C22.1154 13.4498 22.0343 13.2542 21.8901 13.1099C21.7458 12.9657 21.5502 12.8846 21.3462 12.8846H19.8077C18.9916 12.8846 18.209 13.2088 17.632 13.7858C17.0549 14.3629 16.7308 15.1455 16.7308 15.9615V18.2692H14.4231C14.2191 18.2692 14.0234 18.3503 13.8792 18.4945C13.7349 18.6388 13.6538 18.8344 13.6538 19.0385C13.6538 19.2425 13.7349 19.4381 13.8792 19.5824C14.0234 19.7266 14.2191 19.8077 14.4231 19.8077H16.7308V25.926C14.5623 25.728 12.5536 24.7017 11.1225 23.0605C9.69146 21.4194 8.94815 19.2897 9.04723 17.1144C9.14631 14.9392 10.0801 12.8859 11.6545 11.3816C13.2289 9.87736 15.3225 9.03792 17.5 9.03792C19.6775 9.03792 21.7712 9.87736 23.3455 11.3816C24.9199 12.8859 25.8537 14.9392 25.9528 17.1144C26.0519 19.2897 25.3085 21.4194 23.8775 23.0605C22.4464 24.7017 20.4377 25.728 18.2692 25.926Z" fill="#F5F5F5"/>
</svg>
