<svg width="74" height="25" viewBox="0 0 74 25" fill="none" xmlns="http://www.w3.org/2000/svg">
<path d="M12.0382 0.636719H0.0839844V24.1387H4.75988V4.9676H12.0382C14.6438 4.9676 16.5819 6.64759 16.5819 8.96297C16.5819 11.2783 14.6115 12.8907 12.0382 12.8907H7.42999V17.2893H12.0382C16.814 17.2893 21.2545 13.697 21.2545 8.96297C21.2545 3.96147 17.0463 0.636719 12.0382 0.636719Z" fill="#222222"/>
<path d="M36.0761 4.62936C39.4815 4.62936 42.1194 6.17411 43.39 8.75711H48.3303C46.8598 3.48461 42.0871 0.130859 36.0761 0.130859C31.2133 0.130859 27.1694 2.41399 24.9926 6.00961H31.1843C32.5129 5.12286 34.1865 4.62624 36.0761 4.62624V4.62936ZM36.0761 20.1405C31.3358 20.1405 27.9305 16.9512 27.9305 12.4205C27.9305 11.0564 28.2206 9.82449 28.756 8.75711H23.777C23.4351 9.90186 23.2545 11.1274 23.2545 12.4205C23.2545 19.402 28.7656 24.6422 36.0761 24.6422C42.0871 24.6422 46.8953 21.2854 48.3303 16.0129H43.39C42.0871 18.5636 39.4493 20.1405 36.0761 20.1405Z" fill="#222222"/>
<path d="M50.3303 0.634766V24.1368H55.0062V0.634766H50.3303ZM62.0491 12.3858L73.1326 0.634766H66.7896L57.6731 10.238V14.6334L67.4893 24.1368H74.0001L62.0459 12.3858H62.0491Z" fill="#222222"/>
</svg>
