<svg width="35" height="35" viewBox="0 0 35 35" fill="none" xmlns="http://www.w3.org/2000/svg">
<path d="M0 17.5C0 7.83502 7.83502 0 17.5 0C27.165 0 35 7.83502 35 17.5C35 27.165 27.165 35 17.5 35C7.83502 35 0 27.165 0 17.5Z" fill="#222222"/>
<path d="M17.5 12.8846C16.5872 12.8846 15.6948 13.1553 14.9358 13.6624C14.1768 14.1696 13.5853 14.8904 13.2359 15.7338C12.8866 16.5771 12.7952 17.5051 12.9733 18.4004C13.1514 19.2957 13.591 20.1181 14.2364 20.7636C14.8819 21.409 15.7043 21.8486 16.5996 22.0267C17.4949 22.2048 18.4229 22.1134 19.2662 21.7641C20.1096 21.4147 20.8304 20.8232 21.3376 20.0642C21.8447 19.3052 22.1154 18.4128 22.1154 17.5C22.1141 16.2763 21.6274 15.1031 20.7622 14.2378C19.8969 13.3726 18.7237 12.8859 17.5 12.8846ZM17.5 20.5769C16.8914 20.5769 16.2966 20.3965 15.7906 20.0584C15.2846 19.7203 14.8902 19.2397 14.6573 18.6775C14.4244 18.1153 14.3635 17.4966 14.4822 16.8997C14.6009 16.3029 14.894 15.7546 15.3243 15.3243C15.7546 14.894 16.3029 14.6009 16.8997 14.4822C17.4966 14.3635 18.1153 14.4244 18.6775 14.6573C19.2397 14.8902 19.7203 15.2846 20.0584 15.7906C20.3965 16.2966 20.5769 16.8914 20.5769 17.5C20.5769 18.3161 20.2527 19.0987 19.6757 19.6757C19.0987 20.2527 18.3161 20.5769 17.5 20.5769ZM22.1154 7.5H12.8846C11.457 7.50153 10.0883 8.06932 9.0788 9.0788C8.06932 10.0883 7.50153 11.457 7.5 12.8846V22.1154C7.50153 23.543 8.06932 24.9117 9.0788 25.9212C10.0883 26.9307 11.457 27.4985 12.8846 27.5H22.1154C23.543 27.4985 24.9117 26.9307 25.9212 25.9212C26.9307 24.9117 27.4985 23.543 27.5 22.1154V12.8846C27.4985 11.457 26.9307 10.0883 25.9212 9.0788C24.9117 8.06932 23.543 7.50153 22.1154 7.5ZM25.9615 22.1154C25.9615 23.1354 25.5563 24.1137 24.835 24.835C24.1137 25.5563 23.1354 25.9615 22.1154 25.9615H12.8846C11.8646 25.9615 10.8863 25.5563 10.165 24.835C9.44368 24.1137 9.03846 23.1354 9.03846 22.1154V12.8846C9.03846 11.8646 9.44368 10.8863 10.165 10.165C10.8863 9.44368 11.8646 9.03846 12.8846 9.03846H22.1154C23.1354 9.03846 24.1137 9.44368 24.835 10.165C25.5563 10.8863 25.9615 11.8646 25.9615 12.8846V22.1154ZM23.6538 12.5C23.6538 12.7282 23.5862 12.9513 23.4594 13.141C23.3326 13.3308 23.1524 13.4787 22.9416 13.566C22.7307 13.6533 22.4987 13.6762 22.2749 13.6317C22.0511 13.5872 21.8455 13.4773 21.6841 13.3159C21.5227 13.1545 21.4128 12.9489 21.3683 12.7251C21.3238 12.5013 21.3467 12.2693 21.434 12.0584C21.5213 11.8476 21.6692 11.6674 21.859 11.5406C22.0487 11.4138 22.2718 11.3462 22.5 11.3462C22.806 11.3462 23.0995 11.4677 23.3159 11.6841C23.5323 11.9005 23.6538 12.194 23.6538 12.5Z" fill="#F5F5F5"/>
</svg>
