<svg width="35" height="35" viewBox="0 0 35 35" fill="none" xmlns="http://www.w3.org/2000/svg">
<rect width="35" height="35" rx="17.5" fill="#222222"/>
<path d="M27.2219 8.76666C27.1112 8.6711 26.9765 8.60754 26.8324 8.58284C26.6883 8.55814 26.5402 8.57323 26.404 8.62648L8.3095 15.7077C8.05306 15.8074 7.83595 15.9877 7.69086 16.2215C7.54578 16.4553 7.48056 16.7299 7.50503 17.0039C7.52951 17.278 7.64235 17.5367 7.82657 17.7411C8.01078 17.9454 8.25641 18.0844 8.52646 18.1371L13.2148 19.0577V24.2853C13.2139 24.57 13.2985 24.8485 13.4577 25.0846C13.6169 25.3207 13.8433 25.5035 14.1077 25.6094C14.3716 25.7172 14.6618 25.743 14.9406 25.6836C15.2195 25.6243 15.474 25.4823 15.6711 25.2764L17.9318 22.9317L21.5183 26.071C21.7771 26.3005 22.1108 26.4275 22.4567 26.4281C22.6083 26.428 22.7589 26.4042 22.9031 26.3576C23.1388 26.2828 23.3508 26.1476 23.5179 25.9654C23.6851 25.7832 23.8016 25.5604 23.8558 25.3192L27.4799 9.55326C27.5123 9.41107 27.5054 9.26275 27.46 9.12418C27.4145 8.9856 27.3322 8.86202 27.2219 8.76666ZM21.763 11.9809L13.7639 17.7095L9.33538 16.8407L21.763 11.9809ZM14.6434 24.2853V20.046L16.8568 21.9871L14.6434 24.2853ZM22.4585 24.9996L15.0764 18.5264L25.7013 10.9113L22.4585 24.9996Z" fill="#F5F5F5"/>
</svg>
