<svg width="35" height="35" viewBox="0 0 35 35" fill="none" xmlns="http://www.w3.org/2000/svg">
<path d="M0 17.5C0 7.83502 7.83502 0 17.5 0C27.165 0 35 7.83502 35 17.5C35 27.165 27.165 35 17.5 35C7.83502 35 0 27.165 0 17.5Z" fill="#222222"/>
<path d="M23.2325 19.1194L20.1553 17.5808C20.0342 17.5204 19.8993 17.4931 19.7642 17.5015C19.6291 17.5099 19.4987 17.5539 19.386 17.6288L17.9734 18.5712C17.3249 18.2148 16.7913 17.6811 16.4348 17.0326L17.3772 15.62C17.4521 15.5073 17.4961 15.3769 17.5045 15.2418C17.5129 15.1067 17.4856 14.9718 17.4253 14.8507L15.8866 11.7735C15.8229 11.6447 15.7243 11.5363 15.6021 11.4607C15.4799 11.3851 15.3389 11.3452 15.1952 11.3455C14.1751 11.3455 13.1967 11.7508 12.4753 12.4722C11.754 13.1935 11.3487 14.1719 11.3487 15.1921C11.3513 17.4356 12.2436 19.5866 13.8301 21.173C15.4165 22.7595 17.5675 23.6519 19.8111 23.6544C20.3162 23.6544 20.8164 23.5549 21.2831 23.3616C21.7497 23.1683 22.1738 22.885 22.531 22.5278C22.8881 22.1706 23.1715 21.7466 23.3648 21.2799C23.5581 20.8132 23.6576 20.313 23.6576 19.8079C23.6577 19.665 23.618 19.5249 23.5429 19.4032C23.4678 19.2816 23.3604 19.1833 23.2325 19.1194ZM19.8111 22.1158C17.9754 22.1138 16.2155 21.3837 14.9175 20.0856C13.6195 18.7876 12.8894 17.0277 12.8873 15.1921C12.8872 14.6585 13.0719 14.1413 13.4101 13.7286C13.7483 13.3159 14.2191 13.0331 14.7423 12.9284L15.8463 15.1401L14.9067 16.5384C14.8365 16.6437 14.7934 16.7647 14.7811 16.8906C14.7689 17.0166 14.7879 17.1437 14.8365 17.2605C15.387 18.5687 16.4277 19.6094 17.7359 20.1599C17.8531 20.2106 17.9811 20.2314 18.1083 20.2203C18.2356 20.2092 18.3581 20.1666 18.4648 20.0964L19.8697 19.1598L22.0815 20.2637C21.9759 20.7875 21.6919 21.2585 21.2779 21.5963C20.8638 21.934 20.3454 22.1177 19.8111 22.1158ZM17.5031 7.49902C15.7765 7.49865 14.0792 7.9453 12.5764 8.79552C11.0736 9.64574 9.81649 10.8706 8.92749 12.3507C8.03848 13.8309 7.54784 15.5161 7.50333 17.2421C7.45881 18.9682 7.86193 20.6764 8.67345 22.2004L7.582 25.4748C7.49159 25.7459 7.47847 26.0368 7.54411 26.3149C7.60975 26.5931 7.75155 26.8474 7.95362 27.0495C8.1557 27.2516 8.41005 27.3934 8.68819 27.459C8.96632 27.5247 9.25724 27.5115 9.52834 27.4211L12.8027 26.3297C14.1439 27.0431 15.6301 27.4415 17.1483 27.4948C18.6666 27.5481 20.177 27.2548 21.5649 26.6371C22.9529 26.0195 24.1819 25.0938 25.1587 23.9303C26.1355 22.7668 26.8343 21.396 27.2023 19.9221C27.5702 18.4481 27.5975 16.9097 27.2821 15.4237C26.9667 13.9376 26.3169 12.5429 25.382 11.3455C24.4471 10.148 23.2517 9.1793 21.8865 8.51283C20.5214 7.84635 19.0223 7.49965 17.5031 7.49902ZM17.5031 25.9623C16.0155 25.9633 14.5539 25.5716 13.2662 24.8266C13.1719 24.772 13.0671 24.738 12.9587 24.7268C12.8502 24.7157 12.7407 24.7278 12.6373 24.7622L9.04079 25.9623L10.2399 22.3658C10.2745 22.2625 10.2867 22.153 10.2758 22.0446C10.2648 21.9361 10.231 21.8313 10.1765 21.7369C9.24367 20.1242 8.86915 18.2487 9.11102 16.4014C9.35289 14.5541 10.1976 12.8382 11.5142 11.52C12.8308 10.2018 14.5455 9.35485 16.3926 9.11064C18.2396 8.86644 20.1155 9.23859 21.7294 10.1694C23.3434 11.1001 24.605 12.5375 25.3187 14.2585C26.0323 15.9794 26.1581 17.8878 25.6765 19.6876C25.1948 21.4873 24.1327 23.0778 22.6549 24.2124C21.1771 25.3469 19.3662 25.962 17.5031 25.9623Z" fill="#F5F5F5"/>
</svg>
